<svg xmlns="http://www.w3.org/2000/svg" viewBox="0 0 32 32"><path fill="#326DAF" fill-rule="evenodd" d="M7.47 12c2.23 0 2.74 1.2 2.46 2.32-.3 1.18-1.12 2.07-2.95 2.27l1.53 3.29H5.73l-1.4-2.94c-.13-.31-.22-.35-.57-.35l-1.2 3.28H0l1.69-4.9 4.58.01c.72 0 .85-.1.96-.43.12-.32.04-.66-.68-.66H2L2.65 12h4.82zm3.73.01l8.1.01-.65 1.89h-2.6L14 19.87h-2.72l2.06-5.98h-2.78L11.2 12zm10.52.01c1.67 0 2.1 1.1 1.6 2.55l-1.84 5.32h-2.73l1.84-5.32c.12-.37-.07-.66-.43-.66h-.84l.65-1.89h1.75zm4.24 0c1.67 0 2.1 1.11 1.6 2.55l-1.84 5.33H23l1.84-5.33c.13-.36-.07-.66-.43-.66h-.64l.65-1.88h1.55zm4.25.01c1.67 0 2.1 1.1 1.6 2.55l-1.85 5.32h-2.73l1.84-5.32c.13-.37-.06-.66-.43-.66H28l.65-1.89h1.56z"/></svg>